<?xml version="1.0" encoding="UTF-8"?>
<svg version="1.1" xmlns="http://www.w3.org/2000/svg" width="212" height="90">
<path d="M0 0 C69.96 0 139.92 0 212 0 C212 29.7 212 59.4 212 90 C142.04 90 72.08 90 0 90 C0 60.3 0 30.6 0 0 Z " fill="#FAFBFA" transform="translate(0,0)"/>
<path d="M0 0 C0.66 0 1.32 0 2 0 C4.42588451 5.23052883 6.84683405 10.46330164 9.26318359 15.69824219 C10.08636469 17.47979717 10.91090492 19.26072478 11.73681641 21.04101562 C12.92185296 23.59602842 14.10202707 26.15323734 15.28125 28.7109375 C15.65310425 29.50994476 16.0249585 30.30895203 16.40808105 31.13217163 C19 36.77225659 19 36.77225659 19 39 C17.35 39 15.7 39 14 39 C12.68 36.36 11.36 33.72 10 31 C4.06 30.67 -1.88 30.34 -8 30 C-8.99 32.97 -9.98 35.94 -11 39 C-14.80533984 39.56660391 -18.20854698 39.73027987 -22 39 C-25.34900465 36.479846 -27.61727608 33.42245799 -30 30 C-30.5053125 29.2884375 -31.010625 28.576875 -31.53125 27.84375 C-31.9746875 27.2146875 -32.418125 26.585625 -32.875 25.9375 C-33.57625 24.968125 -34.2775 23.99875 -35 23 C-35.66 23 -36.32 23 -37 23 C-37.33 28.28 -37.66 33.56 -38 39 C-39.65 39 -41.3 39 -43 39 C-43 26.46 -43 13.92 -43 1 C-41.35 1 -39.7 1 -38 1 C-37.67 5.95 -37.34 10.9 -37 16 C-34.85111324 13.87801168 -32.70581417 11.75260401 -30.5625 9.625 C-29.95083984 9.02171875 -29.33917969 8.4184375 -28.70898438 7.796875 C-28.12568359 7.21679688 -27.54238281 6.63671875 -26.94140625 6.0390625 C-26.40201416 5.50490723 -25.86262207 4.97075195 -25.30688477 4.42041016 C-23.89153023 3.01347612 -23.89153023 3.01347612 -23 1 C-20.69 1 -18.38 1 -16 1 C-16 1.66 -16 2.32 -16 3 C-17.50390625 4.48046875 -17.50390625 4.48046875 -19.5625 6.1875 C-23.58675247 9.60201725 -27.32190005 13.21845349 -31 17 C-29.65950906 20.90460951 -27.97685066 23.47064785 -25.1875 26.5 C-24.52105469 27.2321875 -23.85460937 27.964375 -23.16796875 28.71875 C-20.82019372 31.18920156 -18.42035218 33.60076782 -16 36 C-15.72849121 35.37134033 -15.45698242 34.74268066 -15.17724609 34.0949707 C-5.19553663 11.00355521 -5.19553663 11.00355521 0 0 Z " fill="#F3882D" transform="translate(182,18)"/>
<path d="M0 0 C14.88888889 0 14.88888889 0 19 4 C21.34069695 7.78969982 21.19902923 10.56404585 20.6171875 14.87109375 C19.67341546 18.12650996 17.88299606 19.38270953 15 21 C14.34 21 13.68 21 13 21 C15.71683272 25.93054827 18.66657898 30.46284362 22 35 C22.556875 34.67 23.11375 34.34 23.6875 34 C26 33 26 33 28.625 33.0625 C29.40875 33.041875 30.1925 33.02125 31 33 C33.42170679 29.36743982 33.3044503 27.47421305 33.4140625 23.14453125 C33.43342865 22.48289474 33.4527948 21.82125824 33.4727478 21.13957214 C33.53242687 19.03067836 33.57888087 16.92172963 33.625 14.8125 C33.66319066 13.38083585 33.70224303 11.94919441 33.7421875 10.51757812 C33.83811773 7.01192688 33.92219197 3.50610555 34 0 C35.65 0 37.3 0 39 0 C39.07468157 4.00178342 39.12885021 8.00329167 39.16479492 12.00561523 C39.17979409 13.36441117 39.20020038 14.72315941 39.22631836 16.08178711 C39.52738267 32.15626014 39.52738267 32.15626014 34.2578125 37.8984375 C29.47094837 40.23389716 23.98077535 40.0575801 18.87255859 38.85253906 C13.87951177 36.57930314 11.38302735 30.94605447 8.85546875 26.34375 C7.38923028 22.95915961 7.38923028 22.95915961 5 22 C5 27.28 5 32.56 5 38 C3.35 38 1.7 38 0 38 C0 25.46 0 12.92 0 0 Z " fill="#F3882C" transform="translate(83,19)"/>
<path d="M0 0 C2.6102321 3.20835955 4.32182583 6.52632117 6.06640625 10.26953125 C6.34596664 10.868759 6.62552704 11.46798676 6.91355896 12.08537292 C7.50158352 13.34921127 8.08723955 14.61415402 8.6706543 15.88012695 C9.55636678 17.79921108 10.45242664 19.71320944 11.34960938 21.62695312 C11.92250777 22.86168577 12.49479329 24.096703 13.06640625 25.33203125 C13.58146729 26.44296143 14.09652832 27.5538916 14.62719727 28.69848633 C16.04790331 32.11520478 17.05393682 35.4281519 18 39 C16.35 39 14.7 39 13 39 C11.68 36.36 10.36 33.72 9 31 C3.06 30.67 -2.88 30.34 -9 30 C-9.495 32.475 -9.495 32.475 -10 35 C-11.0625 37.3125 -11.0625 37.3125 -12 39 C-13.98 39 -15.96 39 -18 39 C-5.47795542 8.78446905 -5.47795542 8.78446905 0 0 Z " fill="#F3882C" transform="translate(62,18)"/>
<path d="M0 0 C1.65 0 3.3 0 5 0 C5 4.95 5 9.9 5 15 C10.94 15 16.88 15 23 15 C23 10.05 23 5.1 23 0 C24.65 0 26.3 0 28 0 C28 12.54 28 25.08 28 38 C26.35 38 24.7 38 23 38 C23 32.06 23 26.12 23 20 C17.06 20 11.12 20 5 20 C5 25.94 5 31.88 5 38 C3.35 38 1.7 38 0 38 C0 25.46 0 12.92 0 0 Z " fill="#F3892F" transform="translate(14,19)"/>
<path d="M0 0 C1.65 0 3.3 0 5 0 C5.07468157 4.00178342 5.12885021 8.00329167 5.16479492 12.00561523 C5.17979409 13.36441117 5.20020038 14.72315941 5.22631836 16.08178711 C5.52625281 32.09593439 5.52625281 32.09593439 0.25 37.9375 C-2.88676811 39.41875161 -5.58190283 39.19719791 -9 39 C-9 38.34 -9 37.68 -9 37 C-9.66 37 -10.32 37 -11 37 C-10.67 35.68 -10.34 34.36 -10 33 C-8.88625 33.061875 -7.7725 33.12375 -6.625 33.1875 C-5.42875 33.125625 -4.2325 33.06375 -3 33 C-0.57829321 29.36743982 -0.6955497 27.47421305 -0.5859375 23.14453125 C-0.56657135 22.48289474 -0.5472052 21.82125824 -0.5272522 21.13957214 C-0.46757313 19.03067836 -0.42111913 16.92172963 -0.375 14.8125 C-0.33680934 13.38083585 -0.29775697 11.94919441 -0.2578125 10.51757812 C-0.16188227 7.01192688 -0.07780803 3.50610555 0 0 Z " fill="#F3882D" transform="translate(117,19)"/>
<path d="M0 0 C1.65 0 3.3 0 5 0 C5 12.54 5 25.08 5 38 C3.35 38 1.7 38 0 38 C0 25.46 0 12.92 0 0 Z " fill="#F38120" transform="translate(127,19)"/>
<path d="M0 0 C1.44375 0.12375 2.8875 0.2475 4.375 0.375 C5.59316406 0.47941406 5.59316406 0.47941406 6.8359375 0.5859375 C9 1 9 1 11 3 C11.55979644 8.26208651 11.55979644 8.26208651 9.625 10.8125 C5.97467349 13.48004629 5.28722101 13 0 13 C0 8.71 0 4.42 0 0 Z " fill="#FBFAF7" transform="translate(88,24)"/>
<path d="M0 0 C6 0 6 0 9 2 C9.37331109 5.42201828 9.63763183 7.90185629 7.875 10.9375 C6 12 6 12 0 12 C0 8.04 0 4.08 0 0 Z " fill="#E8EAEB" transform="translate(112,68)"/>
<path d="M0 0 C0.66 0 1.32 0 2 0 C2.83764268 1.95649397 3.66999059 3.91525556 4.5 5.875 C4.9640625 6.96554688 5.428125 8.05609375 5.90625 9.1796875 C7 12 7 12 7 14 C3.04 14 -0.92 14 -5 14 C-1.85714286 4.42857143 -1.85714286 4.42857143 0 0 Z " fill="#FBF6F0" transform="translate(182,29)"/>
<path d="M0 0 C3.40198926 4.04998722 6 8.63626649 6 14 C2.04 14 -1.92 14 -6 14 C-5.19074658 11.85294019 -4.37750887 9.7073817 -3.5625 7.5625 C-3.11003906 6.36753906 -2.65757813 5.17257813 -2.19140625 3.94140625 C-1 1 -1 1 0 0 Z " fill="#FBF8F3" transform="translate(62,29)"/>
<path d="M0 0 C2.97 0.495 2.97 0.495 6 1 C6.89141824 4.31098205 7.62916167 7.5882874 8 11 C7.34 11.66 6.68 12.32 6 13 C4.02 13 2.04 13 0 13 C0 8.71 0 4.42 0 0 Z " fill="#5E5F61" transform="translate(162,67)"/>
<path d="M0 0 C0.99 0.33 1.98 0.66 3 1 C4.1875 4.0625 4.1875 4.0625 5 7 C5.99 5.02 6.98 3.04 8 1 C10.51083114 2.25541557 10.87125446 3.50063488 12 6 C12.66 5.01 13.32 4.02 14 3 C14.66 2.01 15.32 1.02 16 0 C16.66 0 17.32 0 18 0 C16.58192622 4.47238653 14.88695626 8.71146306 13 13 C11.49440461 11.03617993 10.10868317 9.21736634 9 7 C8.01 8.98 7.02 10.96 6 13 C2.67467889 10.30807339 1.47545057 6.93453485 0 3 C0 2.01 0 1.02 0 0 Z " fill="#424243" transform="translate(11,67)"/>
<path d="M0 0 C3.625 0.375 3.625 0.375 7 1 C8.32278481 6.41139241 8.32278481 6.41139241 6.9375 8.9375 C4.06369928 10.51345523 2.08587291 9.80501033 -1 9 C-2 8 -2 8 -2.1875 5.0625 C-2 2 -2 2 0 0 Z " fill="#858789" transform="translate(191,11)"/>
<path d="M0 0 C2.64 0 5.28 0 8 0 C8 0.66 8 1.32 8 2 C6.02 2 4.04 2 2 2 C2 2.99 2 3.98 2 5 C3.98 5 5.96 5 8 5 C8 5.66 8 6.32 8 7 C6.35 7 4.7 7 3 7 C3 8.32 3 9.64 3 11 C4.65 11 6.3 11 8 11 C8 11.99 8 12.98 8 14 C5.36 14 2.72 14 0 14 C0 9.38 0 4.76 0 0 Z " fill="#6A6C6E" transform="translate(182,67)"/>
<path d="M0 0 C1.65 0 3.3 0 5 0 C7 2 7 2 7.125 4.625 C7.08375 5.40875 7.0425 6.1925 7 7 C6.34 7 5.68 7 5 7 C5.99 8.98 6.98 10.96 8 13 C4.125 11.25 4.125 11.25 3 9 C2.67 10.32 2.34 11.64 2 13 C1.34 13 0.68 13 0 13 C0 8.71 0 4.42 0 0 Z " fill="#5F5F61" transform="translate(38,67)"/>
<path d="M0 0 C6.42857143 5.28571429 6.42857143 5.28571429 9 8 C9 5.36 9 2.72 9 0 C9.66 0 10.32 0 11 0 C11 4.29 11 8.58 11 13 C4.125 7.125 4.125 7.125 3 6 C2.67 8.31 2.34 10.62 2 13 C1.34 13 0.68 13 0 13 C0 8.71 0 4.42 0 0 Z " fill="#3D3D3F" transform="translate(96,67)"/>
<path d="M0 0 C0.66 0 1.32 0 2 0 C2.83790789 1.78953185 3.67019396 3.58169695 4.5 5.375 C4.9640625 6.37273437 5.428125 7.37046875 5.90625 8.3984375 C7 11 7 11 7 13 C6.34 13 5.68 13 5 13 C4.67 12.34 4.34 11.68 4 11 C0.97065509 10.34227572 0.97065509 10.34227572 -2 10 C-2.33 10.99 -2.66 11.98 -3 13 C-3.66 13 -4.32 13 -5 13 C-3.58192622 8.52761347 -1.88695626 4.28853694 0 0 Z " fill="#39383A" transform="translate(152,67)"/>
<path d="M0 0 C3.32637022 2.69277589 4.58473125 6.03724749 6 10 C5.67 10.99 5.34 11.98 5 13 C4.67 12.01 4.34 11.02 4 10 C1.02934491 10.34227572 1.02934491 10.34227572 -2 11 C-2.33 11.66 -2.66 12.32 -3 13 C-3.66 13 -4.32 13 -5 13 C-4.54554036 11.58208592 -4.08625056 10.16571954 -3.625 8.75 C-3.24214844 7.56664063 -3.24214844 7.56664063 -2.8515625 6.359375 C-2.04826333 4.13372042 -1.10288338 2.09068328 0 0 Z " fill="#3E3E40" transform="translate(86,67)"/>
<path d="M0 0 C2.31 0 4.62 0 7 0 C7 0.66 7 1.32 7 2 C5.35 2 3.7 2 2 2 C2 2.99 2 3.98 2 5 C3.65 5 5.3 5 7 5 C7 5.66 7 6.32 7 7 C5.35 7 3.7 7 2 7 C2 8.32 2 9.64 2 11 C3.65 11 5.3 11 7 11 C7 11.66 7 12.32 7 13 C4.69 13 2.38 13 0 13 C0 8.71 0 4.42 0 0 Z " fill="#4A4A4C" transform="translate(50,67)"/>
<path d="M0 0 C1.67542976 0.28604898 3.34385343 0.61781233 5 1 C4.67 1.66 4.34 2.32 4 3 C3.01 2.67 2.02 2.34 1 2 C1 2.99 1 3.98 1 5 C3.475 5.99 3.475 5.99 6 7 C6.042721 8.66611905 6.04063832 10.33382885 6 12 C5 13 5 13 1.9375 13.0625 C0.968125 13.041875 -0.00125 13.02125 -1 13 C-1.33 12.01 -1.66 11.02 -2 10 C0.97 10.495 0.97 10.495 4 11 C3.33131686 7.88667752 3.33131686 7.88667752 0.9375 6.8125 C0.298125 6.544375 -0.34125 6.27625 -1 6 C-1.042721 4.33388095 -1.04063832 2.66617115 -1 1 C-0.67 0.67 -0.34 0.34 0 0 Z " fill="#454547" transform="translate(195,67)"/>
<path d="M0 0 C1.67542976 0.28604898 3.34385343 0.61781233 5 1 C4.67 1.66 4.34 2.32 4 3 C3.01 2.67 2.02 2.34 1 2 C1 2.99 1 3.98 1 5 C3.475 5.99 3.475 5.99 6 7 C6.042721 8.66611905 6.04063832 10.33382885 6 12 C5 13 5 13 1.9375 13.0625 C0.968125 13.041875 -0.00125 13.02125 -1 13 C-1.33 12.01 -1.66 11.02 -2 10 C0.97 10.495 0.97 10.495 4 11 C3.33131686 7.88667752 3.33131686 7.88667752 0.9375 6.8125 C0.298125 6.544375 -0.34125 6.27625 -1 6 C-1.042721 4.33388095 -1.04063832 2.66617115 -1 1 C-0.67 0.67 -0.34 0.34 0 0 Z " fill="#444446" transform="translate(62,67)"/>
<path d="M0 0 C6 0 6 0 9 2 C9.37331109 5.42201828 9.63763183 7.90185629 7.875 10.9375 C6 12 6 12 0 12 C0 8.04 0 4.08 0 0 Z M1 1 C1 3.97 1 6.94 1 10 C2.66611905 10.042721 4.33382885 10.04063832 6 10 C7.33187793 8.88833136 7.33187793 8.88833136 7.1875 6.0625 C7.33278733 2.89107141 7.33278733 2.89107141 5 1 C3.68 1 2.36 1 1 1 Z " fill="#363537" transform="translate(112,68)"/>
<path d="M0 0 C0 0.99 0 1.98 0 3 C-1.2065625 2.9690625 -1.2065625 2.9690625 -2.4375 2.9375 C-4.93354885 2.70366379 -4.93354885 2.70366379 -6 4 C-6.2500773 6.45809998 -6.2500773 6.45809998 -6 9 C-4.16116119 11.28728734 -4.16116119 11.28728734 -1.375 11.125 C-0.59125 11.08375 0.1925 11.0425 1 11 C1 11.66 1 12.32 1 13 C-2.3125 13.25 -2.3125 13.25 -6 13 C-8.38460953 10.92308202 -8.8959746 9.59443084 -9.4375 6.5 C-8.49213931 1.09793891 -5.18145495 -0.57571722 0 0 Z " fill="#404042" transform="translate(143,67)"/>
<path d="M0 0 C0.66 0 1.32 0 2 0 C2.33 2.97 2.66 5.94 3 9 C1.68 9 0.36 9 -1 9 C-2.0326802 6.21176345 -2.04509293 5.1322726 -1.0625 2.25 C-0.711875 1.5075 -0.36125 0.765 0 0 Z " fill="#7D7F81" transform="translate(152,67)"/>
<path d="M0 0 C2.31 0 4.62 0 7 0 C7 0.66 7 1.32 7 2 C5.35 2 3.7 2 2 2 C2 2.99 2 3.98 2 5 C3.65 5 5.3 5 7 5 C6.67 5.66 6.34 6.32 6 7 C3.03 6.505 3.03 6.505 0 6 C0 4.02 0 2.04 0 0 Z " fill="#535456" transform="translate(50,67)"/>
<path d="M0 0 C1.98 0 3.96 0 6 0 C5.625 1.9375 5.625 1.9375 5 4 C4.01 4.495 4.01 4.495 3 5 C2.01 4.67 1.02 4.34 0 4 C0 2.68 0 1.36 0 0 Z " fill="#9D9EA0" transform="translate(164,75)"/>
<path d="M0 0 C1.5625 1.1875 1.5625 1.1875 3 3 C2.6875 5.6875 2.6875 5.6875 2 8 C1.01 8 0.02 8 -1 8 C-1.93065133 5.39417629 -2.14917407 4.35801776 -1.0625 1.75 C-0.711875 1.1725 -0.36125 0.595 0 0 Z " fill="#78797B" transform="translate(86,67)"/>
<path d="M0 0 C0.99 0.33 1.98 0.66 3 1 C4.1875 4.5625 4.1875 4.5625 5 8 C4.34 8.66 3.68 9.32 3 10 C0 3.375 0 3.375 0 0 Z " fill="#545557" transform="translate(11,67)"/>
</svg>
